<?xml version="1.0" encoding="UTF-8"?> <!-- Generator: Adobe Illustrator 21.0.0, SVG Export Plug-In . SVG Version: 6.00 Build 0) --> <svg xmlns="http://www.w3.org/2000/svg" xmlns:xlink="http://www.w3.org/1999/xlink" x="0px" y="0px" viewBox="0 0 600 600" style="enable-background:new 0 0 600 600;" xml:space="preserve"> <style type="text/css"> .st0{display:none;} .st1{display:inline;} .st2{fill:#EAF4FD;} .st3{fill:#FFE9E9;} .st4{fill:#EAECFF;} </style> <g id="Warstwa_1" class="st0"> <g transform="translate(300,300)" class="st1"> <path class="st2" d="M147.8-183.8c29,32.1,27.8,92.6,26.2,144.2c-1.5,51.6-3.3,94.4-17.7,139.9c-14.3,45.5-41.2,93.8-81.9,112 s-95.1,6.3-139.2-17.2c-44-23.4-77.5-58.5-100.4-99.2s-35.2-87.1-23.9-125.4c11.3-38.4,46.2-68.8,81.7-99.7 C-72-160.1-36-191.6,11.7-205.5S118.7-215.8,147.8-183.8z"></path> </g> </g> <g id="Warstwa_2" class="st0"> <g transform="translate(300,300)" class="st1"> <path class="st3" d="M85.8-151.4c34.6,36.2,67,73.1,81,120.6c13.9,47.5,9.4,105.5-12,155c-21.4,49.6-59.6,90.6-100.4,96.2 c-40.8,5.5-84.1-24.3-121.8-50c-37.7-25.7-69.8-47.3-94.1-81.6c-24.4-34.3-41.1-81.2-26.1-111.5c14.8-30.2,61.2-43.7,94.1-80.2 c32.9-36.5,52.2-95.9,80.2-108C14.7-222.9,51.3-187.5,85.8-151.4z"></path> </g> </g> <g id="Warstwa_3" class="st0"> <g transform="translate(300,300)" class="st1"> <path class="st4" d="M111.8-148.5c27.7,30.3,45.6,70.8,55.3,121.7s10.8,112.1-16.9,160.6c-27.7,48.6-84.4,84.6-140.9,84.5 c-56.5-0.1-112.9-36.4-149.6-84.9c-36.6-48.6-53.5-109.7-53-170c0.6-60.4,18.5-120.2,55.2-150.5c36.7-30.3,91.9-31.1,138.3-21.4 C46.6-198.9,84.1-178.7,111.8-148.5z"></path> </g> </g> <g id="Warstwa_4"> <g transform="translate(300,300)"> <path class="st2" d="M151.7-158.9c32.6,49.7,21.5,135.8,1.1,212.5c-20.5,76.7-50.1,143.7-94.1,162c-44,18.4-102.5-12.3-148.4-47.1 c-46.1-34.8-79.7-73.5-93.9-123.5c-14.2-49.8-9-110.7,19.1-159.1c28.2-48.5,79.3-84.6,143.1-96.1 C42.5-221.6,118.9-208.5,151.7-158.9z"></path> </g> </g> </svg> 