<?xml version="1.0" encoding="UTF-8"?> <!-- Generator: Adobe Illustrator 21.0.0, SVG Export Plug-In . SVG Version: 6.00 Build 0) --> <svg xmlns="http://www.w3.org/2000/svg" xmlns:xlink="http://www.w3.org/1999/xlink" x="0px" y="0px" viewBox="0 0 600 600" style="enable-background:new 0 0 600 600;" xml:space="preserve"> <style type="text/css"> .st0{display:none;} .st1{display:inline;} .st2{fill:#EAF4FD;} .st3{fill:#FFE9E9;} </style> <g id="Warstwa_1" class="st0"> <g transform="translate(300,300)" class="st1"> <path class="st2" d="M147.8-183.8c29,32.1,27.8,92.6,26.2,144.2c-1.5,51.6-3.3,94.4-17.7,139.9c-14.3,45.5-41.2,93.8-81.9,112 s-95.1,6.3-139.2-17.2c-44-23.4-77.5-58.5-100.4-99.2s-35.2-87.1-23.9-125.4c11.3-38.4,46.2-68.8,81.7-99.7 C-72-160.1-36-191.6,11.7-205.5S118.7-215.8,147.8-183.8z"></path> </g> </g> <g id="Warstwa_2"> <g transform="translate(300,300)"> <path class="st3" d="M85.8-151.4c34.6,36.2,67,73.1,81,120.6c13.9,47.5,9.4,105.5-12,155c-21.4,49.6-59.6,90.6-100.4,96.2 c-40.8,5.5-84.1-24.3-121.8-50c-37.7-25.7-69.8-47.3-94.1-81.6c-24.4-34.3-41.1-81.2-26.1-111.5c14.8-30.2,61.2-43.7,94.1-80.2 c32.9-36.5,52.2-95.9,80.2-108C14.7-222.9,51.3-187.5,85.8-151.4z"></path> </g> </g> </svg> 