<svg id="_x33_0" enable-background="new 0 0 64 64" height="512" viewBox="0 0 64 64" width="512" xmlns="http://www.w3.org/2000/svg"><path d="m41 15c4.486 0 8-2.196 8-5s-3.514-5-8-5-8 2.196-8 5 3.514 5 8 5zm0-8c3.536 0 6 1.581 6 3s-2.464 3-6 3-6-1.581-6-3 2.464-3 6-3z"/><path d="m41 1c-12.748 0-22 4.626-22 11v9h-5c-7.168 0-13 5.832-13 13v12c0 7.168 5.832 13 13 13h13.101c.465 2.279 2.484 4 4.899 4h17c2.206 0 4-1.794 4-4v-14c0-2.206-1.794-4-4-4h-17c-2.414 0-4.434 1.721-4.899 4h-13.101c-1.798 0-3.491-.442-4.991-1.21.092-5.185 3.53-8.79 8.433-8.79h23.558c12.748 0 22-4.626 22-11v-12c0-6.374-9.252-11-22-11zm0 2c11.215 0 20 3.953 20 9s-8.785 9-20 9-20-3.953-20-9 8.785-9 20-9zm-20 13.794c1.534 1.713 3.895 3.148 6.891 4.206h-6.891zm-18 29.206v-5.104c2.135 3.393 5.785 5.73 10 6.053v4.051h2v-4h2v4h2v-4h2v8h2v-8h2v4h2v-4h2v4h2v-4h4v10h-21c-6.065 0-11-4.935-11-11zm30-2c0-.551.448-1 1-1s1 .449 1 1v1h-2zm0 16v-1h2v1c0 .551-.448 1-1 1s-1-.449-1-1zm-3.816-1h1.816v1c0 .301.058.585.141.859-.913-.275-1.638-.966-1.957-1.859zm21.816-14v14c0 1.103-.897 2-2 2h-12.184c.112-.314.184-.648.184-1v-16c0-.352-.072-.686-.184-1h12.184c1.103 0 2 .897 2 2zm-19.859-1.859c-.083.274-.141.558-.141.859v1h-1.816c.319-.893 1.044-1.584 1.957-1.859zm29.859-19.141c0 5.047-8.785 9-20 9h-23.559c-5.674 0-9.76 3.857-10.357 9.543-2.488-2.019-4.084-5.097-4.084-8.543 0-5.024 3.39-9.263 8-10.574v3.574h2v-3.949c.33-.03.662-.051 1-.051h1v8h2v-8h2v4h2v-4h2v4h2v-4h2v8h2v-8h2v4h2v-4h2v4h2v-4h2v8h2v-8c.679 0 1.342-.02 2-.046v4.046h2v-4.169c.681-.055 1.347-.126 2-.209v4.378h2v-4.682c5.44-.968 9.674-2.927 12-5.524z"/><path d="m45 47h2v10h-2z"/><path d="m41 47h2v10h-2z"/></svg>